<?xml version="1.0" encoding="utf-8"?>
<!-- Generator: Adobe Illustrator 25.4.1, SVG Export Plug-In . SVG Version: 6.00 Build 0)  -->
<svg version="1.1" id="Layer_1" xmlns="http://www.w3.org/2000/svg" xmlns:xlink="http://www.w3.org/1999/xlink" x="0px" y="0px"
	 viewBox="0 0 512 512" style="enable-background:new 0 0 512 512;" xml:space="preserve">
<style type="text/css">
	.st0{fill-rule:evenodd;clip-rule:evenodd;fill:#31A636;}
	.st1{fill-rule:evenodd;clip-rule:evenodd;fill:#FFFFFF;}
</style>
<path d="M474.2,205.4l-3.8-3.4l-2.3-2.7l-1.6-2.3l-1.6-1.6l-2.7-1.2l-2.7,3.4l-1.6,5l-0.4,5v4.5l-1.1,4.5l-1.2,3.9l-3.4,2.2l-2.7-5
	l-0.5-5.7l1.6-5.7l2.7-5.7l3.8-3.9l5-3.4l-3.4-8.4l-3.4-8.4l-2.7-9.1l-8.4,2.7l-8.4,2.7l-9.1,1.6l-9.5-1.2l-2.7-10.7l-4.5-9.5
	l-6.8-7.3l-8.4-5.7l-9.5-3.9l-11.3-2.7l-11.8-1.6l-24.1-0.4l-24.2,3.1l-23,2.7l-9.1,0.4h-7.2l-5,0.5h-3.9l-1.2,0.5l-1.1,1.2
	l-1.2,0.5l-1.1,1.1l-1.2,0.5l-1.6,1.2l-1.2,0.5l-17.5,1.1l-16.8,0.5l-16.8-0.5h-18l-16.3,1.2l-14.1,2.7l-13.4,3.4l-12.3,5l-11.8,5.7
	l-11.8,6.1l-12.3,6.1L81.9,182l-14.1,6.8v2.7l-1.2,1.6l-1.1,1.6l-1.6,1.2l-0.5,1.6h15.7l5-2.7l3.9-3.4l3.9-4.5l2.7-3.9l3.4-3.4
	l3.4-2.7l4.6-1.6h5.7l-8,10l-6.1,10L91.9,207l-1.6,3.4l-1.6,3.9l-1.6,2.7l-0.5,1.1l-0.5,2.7l0.5,4.5l-0.5,5.7l-1.1,8.4l-1.6,7.2
	l-2.2,7.3l-3.9,5.7l-5,5l-7.3,3.4l-1.6,7.3l-3.4,7.9l-2.7,6.8l-3.9,8.4l-5,8.9l-5,8.4l-5.7,7.2l-5.7,5l-1.2,5.7l0.5,5.7l2.7,4.4
	l5,4.5l3.9-10.7l5.7-9.5l6.8-9.1l6.1-8.4l6.1-9.1l5-10l6.8-2.3l5-3.4l5-4.5l3.9-5l4.5-4.6l5-3.4l5.7-2.3l7.2,0.4v3.4l-1.6,2.2
	l-2.3,1.6l-2.2,1.6l-2.2,2.2l-1.2,2.7v3.9l3.9,4.6l2.7,5.7l1.6,6.1l1.1,6.1l0.5,6.8l1.2,6.1l1.1,5.7l2.2,5l3.4,3.8l5,3.4l6.8,1.2
	l-5-26.4l-4.6-25.9l9.1-6.1l7.3-7.2l6.1-7.9l5.4-8.5l6.8-8.4l7.9-6.8l5.7,10l8,8.4l9.1,6.8l10.7,5.7l12.3,3.9l13,3.4l13.4,2.2
	l14.1,1.6l14.1,0.5l14.1,0.5l3.4,5l0.5,4.6l-1.2,3.9l-2.2,3.4l-1.6,3.9l-1.1,3.9v7.2l1.1,5.7l1.6,5l2.2,4.5l1.6,5l2.3,6.1l1.6,6.8
	l1.6,6.8l2.2,6.8l2.2,6.1l2.7,5l3.4,3.4l4.5,2.2h5l6.1-2.7l-3.4-6.1l-3.4-7.3l-2.2-7.9l-1.2-8.4l-0.5-8.9v-8.4l1.2-8.4l2.2-8
	l3.4-7.2l4.5-5.7l5.7-3.8l6.8-2.7l7.9-0.5l9.1,1.6l-1.1,4.6l0.4,3.8l2.2,3.4l2.7,2.3l3.4,2.7l3.4,2.2l2.7,2.2l0.4,1.6v1.6l-0.4,1.2
	l-0.5,1.1l-0.4,1.2v0.5l7.9-1.6l7.3,1.2l6.8,2.7l5.7,3.8l6.1,3.9l5,3.4l5,2.7l5,1.1l5.7-1.6l5-5l-6.8-2.7l-7.2-4.6l-6.1-6.1
	l-5.7-6.8l0.5-1.2v-1.6l0.5-1.2v-0.5h-0.5h-0.5l-0.4-0.7l-1.2-0.4l-1.1-0.5l-1.2-5l-0.5-4.5l1.6-5l2.7-4.6l4.6,1.2l2.2,2.2l1.2,2.2
	v2.7v3.4v2.7l0.4,2.7l10.7-3.8l9.5-5l9.5-5.7l9.1-5l10.2-4.6l11.8-2.2v-12.3l2.2-10.7l2.3-9.5l3.4-9.1l3.4-8.9l2.3-9.5l1.6-11.1
	L474.2,205.4z M457.1,234.3v1.6l-1.2,1.1l-1.2,0.5l-1.6,0.5l-1.2-0.5l-1.6-0.5L450,236l-0.5-1.6l0.5-1.6l0.4-1.2l1.6-0.4l1.2-0.4
	l1.6,0.4l1.2,0.4l1.2,1.2V234.3z"/>
<polygon class="st0" points="337.3,131.9 361.3,132.3 373.2,133.9 384.5,136.6 394.1,140.5 402.5,146.2 409.3,153.5 413.9,163 
	416.6,173.7 426.1,174.8 435.2,173.2 443.6,170.5 452.1,167.7 454.8,176.8 458.2,185.2 461.6,193.7 456.6,197.1 452.8,200.9 
	450,206.6 448.4,212.3 448.9,218 451.6,222.9 455,220.7 456.2,216.8 457.3,212.3 457.3,207.7 457.8,202.7 459.4,197.7 462.1,194.3 
	464.8,195.5 466.5,197 468,199.3 470.3,202.1 474.2,205.4 481,209.3 479.4,220.4 477.1,230 473.7,238.8 470.3,247.9 468,257.5 
	465.8,268.1 465.8,280.4 454,282.7 443.7,287.3 434.6,292.2 425.1,297.9 415.6,303 404.9,306.8 404.5,304 404.5,301.3 404.5,297.9 
	404.5,295.1 403.3,292.9 401,290.6 396.4,289.5 393.7,294 392.1,299 392.6,303.6 393.7,308.6 394.9,309.1 396,309.5 396.4,310.2 
	396.9,310.2 397.3,310.2 397.3,310.6 396.9,311.8 396.9,313.4 396.4,314.5 402.2,321.3 408.3,327.4 415.5,332 422.4,334.8 
	417.4,339.8 411.7,341.3 406.7,340.2 401.7,337.5 396.7,334.1 390.6,330.2 384.8,326.4 378,323.6 370.8,322.4 362.8,324.1 
	362.8,323.6 363.3,322.4 363.7,321.3 364.2,320.1 364.2,318.6 363.7,317 361,314.7 357.6,312.5 354.1,309.7 351.4,307.4 349.1,304 
	348.7,300.2 349.8,295.6 340.7,294 332.8,294.5 326,297.2 320.3,301 315.8,306.7 312.3,314 310.1,321.9 308.9,330.4 308.9,338.8 
	309.4,347.6 310.5,356.1 312.8,364 316.2,371.3 319.6,377.4 313.5,380.1 308.5,380.1 303.9,377.9 300.5,374.5 297.8,369.4 
	295.5,363.3 293.3,356.5 291.6,349.7 290.1,342.8 287.8,336.7 286.2,331.7 283.9,327.2 282.3,322.1 281.2,316.5 281.2,309.2 
	282.3,305.3 283.9,301.5 286.2,298.1 287.4,294.2 286.9,289.6 283.5,284.6 269.4,284.2 255.3,283.7 241.2,282.2 227.8,279.9 
	214.9,276.5 202.6,272.6 191.9,267 182.8,260.1 174.9,251.7 169.2,241.7 161.3,248.5 154.4,256.9 149,265.4 142.9,273.3 
	135.6,280.5 126.5,286.7 131.1,312.6 136.1,339 129.2,337.8 124.2,334.4 120.8,330.5 118.6,325.5 117.4,319.8 116.3,313.7 
	115.8,306.9 114.7,300.8 113.1,294.7 110.3,289 106.5,284.4 106.5,280.5 107.6,277.8 109.9,275.6 112.1,274 114.4,272.4 116,270.1 
	116,266.7 108.8,266.2 103.1,268.5 98,271.9 93.5,276.5 89.6,281.5 84.6,286 79.6,289.5 72.8,291.8 67.8,301.7 61.7,310.8 
	55.6,319.2 48.7,328.3 43.1,337.9 39.2,348.5 34.2,344 31.5,339.6 31,333.9 32.2,328.2 37.8,323.2 43.5,316 48.5,307.5 53.5,298.7 
	57.4,290.3 60.1,283.4 63.5,275.5 65.1,268.2 72.4,264.8 77.4,259.8 81.3,254.1 83.5,246.8 85.1,239.6 86.3,231.2 86.7,225.5 
	86.3,220.9 86.7,218.2 87.2,217.1 88.7,214.3 90.4,210.4 91.9,207 97.6,195.2 103.7,185.1 111.7,175.2 106,175.2 101.4,176.7 
	98,179.5 94.6,182.9 91.9,186.8 88,191.3 84.1,194.7 79.2,197.5 63.4,197.5 63.9,195.9 65.5,194.7 66.6,193.2 67.8,191.5 
	67.8,188.8 81.9,182 95.3,175.2 107.5,169 119.4,162.9 131.2,157.2 143.5,152.3 156.9,148.8 171,146.1 187.3,144.9 205.3,144.9 
	222.1,145.4 238.9,144.9 256.4,143.8 257.6,143.3 259.1,142.2 260.3,141.7 261.4,140.6 262.6,140.1 263.7,139 264.9,138.5 
	268.8,138.5 273.8,138.1 281,138.1 290.1,137.7 313.1,134.9 "/>
<polygon class="st1" points="453.1,230.7 452,231.2 450.4,231.6 449.9,232.8 449.5,234.3 449.9,236 450.4,237.1 452,237.5 
	453.1,238 454.7,237.5 455.9,237.1 457.1,236 457.1,234.3 457.1,232.8 455.9,231.6 454.7,231.2 "/>
</svg>
