<?xml version="1.0" encoding="utf-8"?>
<!-- Generator: Adobe Illustrator 16.0.0, SVG Export Plug-In . SVG Version: 6.00 Build 0)  -->
<!DOCTYPE svg PUBLIC "-//W3C//DTD SVG 1.0//EN" "http://www.w3.org/TR/2001/REC-SVG-20010904/DTD/svg10.dtd">
<svg version="1.0" id="Layer_1" xmlns="http://www.w3.org/2000/svg" xmlns:xlink="http://www.w3.org/1999/xlink" x="0px" y="0px"
	 width="800px" height="800px" viewBox="0 0 800 800" enable-background="new 0 0 800 800" xml:space="preserve">
<g>
	<polygon fill="#0D227A" points="267.228,425.759 343.961,297.489 463.004,297.489 538.709,425.753 373.662,425.753 
		394.744,390.468 441.063,390.468 404.658,330.56 347.375,425.759 	"/>
	<polygon fill="#0D227A" points="556.008,297.498 773.301,297.498 773.301,334.762 640.34,334.762 640.34,357.327 771.566,357.344 
		771.566,392.807 640.34,392.807 640.34,425.734 556.049,425.734 	"/>
	<rect x="26.056" y="453.831" fill="#F20007" width="747.887" height="48.68"/>
	<path fill="#0D227A" d="M26.056,424.816H173.58c42.831,0,63.492-8.14,76.512-21.167c13.009-13.036,17.555-30.969,17.555-42.497
		c0-11.535-4.546-29.469-17.555-42.504c-13.021-13.021-33.682-21.15-76.512-21.15H26.056V424.816z M108.699,331.588h19.099h16.614
		c17.058,0,21.854,3.363,27.633,8.801c5.772,5.428,8.859,13.67,8.859,21.227c0,8.293-3.08,15.925-8.852,21.356
		c-5.779,5.438-10.832,8.669-26.946,8.669h-17.308h-19.099v-30.026V331.588z"/>
</g>
</svg>
